<svg xmlns="http://www.w3.org/2000/svg" xmlns:xlink="http://www.w3.org/1999/xlink" width="500" zoomAndPan="magnify" viewBox="0 0 375 375" height="500" preserveAspectRatio="xMidYMid meet" version="1.2"><defs><clipPath id="c72012d040"><path d="M 60.863281 60.863281 L 180 60.863281 L 180 314.363281 L 60.863281 314.363281 Z M 60.863281 60.863281"/></clipPath><clipPath id="82b439f27c"><path d="M 197 60.863281 L 314.363281 60.863281 L 314.363281 314.363281 L 197 314.363281 Z M 197 60.863281"/></clipPath></defs><g id="f5fdd788e0"><g clip-rule="nonzero" clip-path="url(#c72012d040)"><path d="M 136.714844 199.652344 L 105.066406 143.046875 L 103.066406 204.304688 L 101.070312 143.046875 L 69.417969 199.652344 L 69.085938 199.472656 L 70.773438 195.429688 L 72.535156 191.429688 C 73.109375 190.089844 73.734375 188.773438 74.335938 187.453125 L 76.15625 183.484375 L 79.921875 175.617188 C 80.539062 174.308594 81.199219 173.011719 81.847656 171.714844 L 83.796875 167.816406 L 85.746094 163.921875 L 87.753906 160.058594 L 91.78125 152.339844 C 92.441406 151.046875 93.15625 149.785156 93.84375 148.507812 L 95.921875 144.683594 L 100.085938 137.042969 L 103.070312 131.574219 L 106.042969 137.042969 L 110.203125 144.6875 C 111.582031 147.242188 113.003906 149.769531 114.339844 152.34375 L 118.371094 160.0625 C 119.039062 161.351562 119.722656 162.632812 120.378906 163.925781 L 122.324219 167.824219 C 123.617188 170.421875 124.949219 173.003906 126.203125 175.625 L 129.964844 183.492188 L 131.789062 187.457031 C 132.398438 188.777344 133.015625 190.09375 133.59375 191.429688 L 135.355469 195.433594 L 137.046875 199.472656 Z M 103.066406 223.097656 C 86.042969 223.097656 71.964844 208.945312 69.605469 201.085938 C 75.867188 205.761719 92.40625 207.136719 103.066406 207.136719 C 113.722656 207.136719 130.265625 205.761719 136.527344 201.085938 C 134.167969 208.945312 120.089844 223.097656 103.066406 223.097656 Z M 176.058594 124.570312 C 172.773438 121.339844 170.734375 116.847656 170.734375 111.875 C 170.734375 111.855469 170.734375 111.84375 170.734375 111.824219 C 170.757812 105.519531 160.671875 107.558594 156.890625 107.75 C 151.5625 108.011719 146.253906 108.691406 141.019531 109.6875 C 122.28125 113.238281 102.199219 120.476562 87.753906 133.347656 C 97.796875 109.988281 134.425781 92.214844 179.273438 90.042969 C 174.160156 86.914062 170.734375 81.292969 170.734375 74.859375 C 170.734375 69.171875 173.410156 64.125 177.554688 60.863281 L 80.199219 60.863281 C 69.519531 60.863281 60.863281 69.519531 60.863281 80.199219 L 60.863281 294.789062 C 60.863281 305.46875 69.519531 314.128906 80.199219 314.128906 L 82.230469 314.128906 C 133.90625 314.128906 175.824219 272.277344 175.902344 220.605469 L 176.058594 124.570312" stroke="none" fill-rule="nonzero" fill="#225389" fill-opacity="1"/></g><g clip-rule="nonzero" clip-path="url(#82b439f27c)"><path d="M 305.574219 199.652344 L 273.917969 143.046875 L 271.921875 204.304688 L 269.921875 143.046875 L 238.273438 199.652344 L 237.941406 199.472656 L 239.628906 195.429688 L 241.386719 191.429688 C 241.964844 190.089844 242.585938 188.773438 243.191406 187.453125 L 245.015625 183.484375 L 248.78125 175.617188 C 249.398438 174.308594 250.054688 173.011719 250.707031 171.714844 L 252.65625 167.816406 L 254.601562 163.921875 L 256.609375 160.058594 L 260.640625 152.339844 C 261.300781 151.046875 262.011719 149.785156 262.699219 148.507812 L 264.78125 144.683594 L 268.945312 137.042969 L 271.921875 131.574219 L 274.902344 137.042969 L 279.0625 144.6875 C 280.4375 147.242188 281.863281 149.769531 283.199219 152.34375 L 287.230469 160.0625 C 287.894531 161.351562 288.582031 162.632812 289.234375 163.925781 L 291.183594 167.824219 C 292.472656 170.421875 293.808594 173.003906 295.058594 175.625 L 298.824219 183.492188 L 300.648438 187.457031 C 301.253906 188.777344 301.871094 190.09375 302.453125 191.429688 L 304.214844 195.433594 L 305.902344 199.472656 Z M 271.921875 223.097656 C 254.902344 223.097656 240.820312 208.945312 238.460938 201.085938 C 244.722656 205.761719 261.265625 207.136719 271.921875 207.136719 C 282.582031 207.136719 299.121094 205.761719 305.386719 201.085938 C 303.023438 208.945312 288.945312 223.097656 271.921875 223.097656 Z M 294.789062 60.863281 L 199.546875 60.863281 C 203.691406 64.125 206.363281 69.171875 206.363281 74.859375 C 206.363281 81.292969 202.9375 86.914062 197.828125 90.042969 C 242.675781 92.214844 279.300781 109.988281 289.34375 133.347656 C 288.863281 132.230469 286.457031 130.890625 285.5 130.136719 C 284.128906 129.058594 282.722656 128.027344 281.289062 127.03125 C 278.261719 124.933594 275.109375 123.011719 271.871094 121.253906 C 262.484375 116.171875 252.347656 112.457031 241.925781 110.167969 C 236.335938 108.941406 230.65625 108.128906 224.945312 107.757812 C 222.011719 107.570312 219.074219 107.496094 216.136719 107.542969 C 213.796875 107.582031 210.386719 107.070312 208.320312 108.308594 C 205.578125 109.949219 206.453125 114.039062 205.695312 116.71875 C 205.246094 118.308594 204.574219 119.835938 203.707031 121.238281 C 203.265625 121.949219 201.089844 123.894531 201.042969 124.570312 C 201.039062 124.605469 201.078125 172.765625 201.117188 220.527344 C 201.160156 272.234375 243.085938 314.128906 294.789062 314.128906 C 305.46875 314.128906 314.128906 305.46875 314.128906 294.789062 L 314.128906 80.199219 C 314.128906 69.519531 305.46875 60.863281 294.789062 60.863281" stroke="none" fill-rule="nonzero" fill="#c29469" fill-opacity="1"/></g></g></svg>